<svg xmlns="http://www.w3.org/2000/svg" viewBox="0 0 64 64" role="img" aria-label="Buga">
  <defs>
    <linearGradient id="g" x1="0%" y1="0%" x2="100%" y2="100%">
      <stop offset="0%" stop-color="#c06cff"/>
      <stop offset="100%" stop-color="#8a4dff"/>
    </linearGradient>
  </defs>
  <rect width="64" height="64" rx="16" fill="#08040f"/>
  <circle cx="32" cy="32" r="24" fill="url(#g)" opacity="0.18"/>
  <path d="M21 18h11.5c7 0 11.5 3.2 11.5 9 0 3.7-2 6.5-5.4 7.8 4.2 1.2 6.7 4.3 6.7 8.5 0 6.4-4.9 10.7-12.4 10.7H21V18zm10.4 14.7c3.3 0 5-1.1 5-3.3s-1.7-3.1-5-3.1H30v6.4h1.4zm1.5 14.4c3.7 0 5.6-1.3 5.6-3.8 0-2.6-1.9-4-5.8-4H30v7.8h2.9z" fill="url(#g)"/>
</svg>
